# xmcd
#
# Track frame offsets: 
#        150
#        18232
#        36872
#        57217
#        74320
#        93677
#        111677
#        128487
#        151205
#        170177
#
# Disc length: 2502 seconds
#
# Revision: 0
# Processed by: cddbd v1.5.2PL0 Copyright (c) Steve Scherf et al.
# Submitted via: ExactAudioCopy v0.99pb5
#
DISCID=8809c40a
DTITLE=李麗芬 - 走音集
DYEAR=1990
DGENRE=Vocal
TTITLE0=天天想你 (原唱:張雨生)
TTITLE1=化妝舞會 (原唱:于台煙)
TTITLE2=只要你過的比我好 (原唱:鍾鎮濤)
TTITLE3=夢醒時分 (原唱:陳淑樺)
TTITLE4=原諒我的心 (原唱:文　章)
TTITLE5=寂寞的眼 (原唱:周華健)
TTITLE6=半夢半醒之間 (原唱:譚詠麟)
TTITLE7=只有分離 (原唱:黃鶯鶯)
TTITLE8=你知道我在等你嗎 (原唱:張洪量)
TTITLE9=一生能有幾次選擇 (原唱:何篤霖)
EXTD=
EXTT0=
EXTT1=
EXTT2=
EXTT3=
EXTT4=
EXTT5=
EXTT6=
EXTT7=
EXTT8=
EXTT9=
PLAYORDER=
